<?xml version="1.0" standalone="no"?><!DOCTYPE svg PUBLIC "-//W3C//DTD SVG 1.1//EN" "http://www.w3.org/Graphics/SVG/1.1/DTD/svg11.dtd"><svg t="1703924108051" class="icon" viewBox="0 0 1024 1024" version="1.1" xmlns="http://www.w3.org/2000/svg" p-id="30402" width="64" height="64" xmlns:xlink="http://www.w3.org/1999/xlink"><path d="M290.304 468.992c0 128 103.936 231.936 231.936 231.936 128 0 231.936-103.936 231.936-231.936 0-128-103.936-231.936-231.936-231.936-128 0-231.936 103.936-231.936 231.936z" fill="#FFFFFF" p-id="30403"></path><path d="M516.096 101.888c54.784 0 108.032 10.752 157.696 31.744 48.128 20.48 91.648 49.664 129.024 87.04 37.376 37.376 66.56 80.384 87.04 129.024 20.992 50.176 31.744 102.912 31.744 157.696s-10.752 108.032-31.744 157.696c-20.48 48.128-49.664 91.648-87.04 129.024-37.376 37.376-80.384 66.56-129.024 87.04-50.176 20.992-102.912 31.744-157.696 31.744s-108.032-10.752-157.696-31.744c-48.128-20.48-91.648-49.664-129.024-87.04-37.376-37.376-66.56-80.384-87.04-129.024-20.992-50.176-31.744-102.912-31.744-157.696s10.752-108.032 31.744-157.696c20.48-48.128 49.664-91.648 87.04-129.024s80.384-66.56 129.024-87.04c49.664-20.992 102.912-31.744 157.696-31.744m0-42.496c-247.296 0-448 200.704-448 448s200.704 448 448 448 448-200.704 448-448-200.704-448-448-448z" fill="#142a59" p-id="30404" data-spm-anchor-id="a313x.search_index.0.i84.57563a81hkR9SA" class="selected"></path><path d="M521.728 804.352c-161.792 0-292.352-131.072-292.352-292.864 0-117.248 70.144-223.232 178.688-269.312 148.992-62.976 320.512 6.656 383.488 155.648 62.976 148.992-6.656 320.512-155.648 383.488-36.352 15.36-74.752 23.552-114.176 23.04z m0-548.864c-141.824 0-256.512 115.2-256.512 256.512 0 102.912 61.952 196.096 156.672 236.032 130.56 54.784 281.088-6.144 335.872-136.704 54.784-130.56-6.144-280.576-136.192-335.872-31.232-13.312-65.536-19.968-99.84-19.968z" p-id="30405" data-spm-anchor-id="a313x.search_index.0.i86.57563a81hkR9SA" class="selected" fill="#142a59"></path><path d="M513.024 501.248c-35.84 0-71.68-3.072-107.52-9.728-94.208-17.92-150.528-52.736-152.576-54.272l19.456-30.208-9.728 15.36 9.728-15.36s13.312 8.192 37.376 18.432c22.016 9.216 58.368 22.528 104.448 30.72 52.224 9.728 105.472 11.264 158.72 5.632 67.072-7.168 134.656-26.112 201.216-56.32l14.848 32.768c-70.656 32.256-142.336 52.224-213.504 59.904-20.992 2.048-41.984 3.072-62.464 3.072z m0 188.928c-35.84 0-71.68-3.072-107.52-9.728-94.208-17.92-150.528-52.736-152.576-54.272l19.456-30.208-9.728 15.36 9.728-15.36s13.312 8.192 37.376 18.432c22.016 9.216 58.368 22.528 104.448 30.72 51.712 9.728 104.96 11.264 158.72 5.632 67.072-7.168 134.656-26.112 201.216-56.32l14.848 32.768c-70.656 32.256-142.336 52.224-213.504 59.904-20.992 2.048-41.984 3.072-62.464 3.072z" p-id="30406" data-spm-anchor-id="a313x.search_index.0.i88.57563a81hkR9SA" class="selected" fill="#142a59"></path><path d="M496.128 237.568h35.84v548.864h-35.84V237.568z m179.2 513.536l-33.792-11.776c18.432-53.248 30.208-110.592 34.304-169.984 3.584-48.64 2.048-97.28-3.584-145.408-10.24-83.456-30.208-138.24-30.208-138.752l33.792-12.288c1.024 2.56 21.504 59.392 32.256 146.944 6.144 50.688 7.68 101.888 4.096 152.576-5.12 61.952-17.408 122.368-36.864 178.688z m-308.736 0.512c-1.024-2.56-21.504-59.392-32.256-146.944-6.144-50.688-7.68-101.888-4.096-152.576 4.608-62.464 16.384-122.88 36.352-179.2l33.792 11.776c-18.432 53.248-30.208 110.592-34.304 169.984-3.584 48.64-2.048 97.28 3.584 145.408 10.24 83.456 30.208 138.24 30.208 138.752l-33.28 12.8z" p-id="30407" data-spm-anchor-id="a313x.search_index.0.i87.57563a81hkR9SA" class="selected" fill="#142a59"></path></svg>