<?xml version="1.0" standalone="no"?><!DOCTYPE svg PUBLIC "-//W3C//DTD SVG 1.1//EN" "http://www.w3.org/Graphics/SVG/1.1/DTD/svg11.dtd"><svg t="1703924948510" class="icon" viewBox="0 0 1024 1024" version="1.1" xmlns="http://www.w3.org/2000/svg" p-id="2397" xmlns:xlink="http://www.w3.org/1999/xlink" width="64" height="64"><path d="M416 384a128 128 0 1 0 256 0 128 128 0 1 0-256 0z" fill="#e6e6e6" p-id="2398" data-spm-anchor-id="a313x.search_index.0.i14.5e6b3a81nmJS9I" class=""></path><path d="M512 448a96 96 0 1 0 0-192 96 96 0 0 0 0 192z m0 64a160 160 0 1 1 0.032-320.032A160 160 0 0 1 512 512z" fill="#142a59" p-id="2399" data-spm-anchor-id="a313x.search_index.0.i13.5e6b3a81nmJS9I" class=""></path><path d="M512 928c229.76 0 416-186.24 416-416S741.76 96 512 96 96 282.24 96 512s186.24 416 416 416z m0 64C246.912 992 32 777.088 32 512S246.912 32 512 32s480 214.912 480 480-214.912 480-480 480z" fill="#142a59" p-id="2400" data-spm-anchor-id="a313x.search_index.0.i15.5e6b3a81nmJS9I" class="selected"></path><path d="M704 896v-96a192 192 0 1 0-384 0v96h-64v-96a256 256 0 0 1 512 0v96h-64z m0 0v-96a192 192 0 1 0-384 0v96h-64v-96a256 256 0 0 1 512 0v96h-64z" fill="#142a59" p-id="2401" data-spm-anchor-id="a313x.search_index.0.i11.5e6b3a81nmJS9I" class="selected"></path></svg>