<?xml version="1.0" standalone="no"?><!DOCTYPE svg PUBLIC "-//W3C//DTD SVG 1.1//EN" "http://www.w3.org/Graphics/SVG/1.1/DTD/svg11.dtd"><svg t="1703924264058" class="icon" viewBox="0 0 1024 1024" version="1.1" xmlns="http://www.w3.org/2000/svg" p-id="30832" data-spm-anchor-id="a313x.search_index.0.i96.57563a81hkR9SA" xmlns:xlink="http://www.w3.org/1999/xlink" width="64" height="64"><path d="M512 967.68A455.68 455.68 0 1 0 56.32 512a455.68 455.68 0 0 0 455.68 455.68z m0 56.32a512 512 0 1 1 512-512 512 512 0 0 1-512 512z m0-107.52a409.6 409.6 0 0 0 404.48-404.48A409.6 409.6 0 0 0 512 107.52 409.6 409.6 0 0 0 107.52 512a409.6 409.6 0 0 0 404.48 404.48z" fill="#142a59" p-id="30833" data-spm-anchor-id="a313x.search_index.0.i92.57563a81hkR9SA" class=""></path><path d="M225.28 225.28l573.44 573.44a414.72 414.72 0 0 1-286.72 117.76A409.6 409.6 0 0 1 107.52 512a414.72 414.72 0 0 1 117.76-286.72z" fill="#142a59" p-id="30834" data-spm-anchor-id="a313x.search_index.0.i94.57563a81hkR9SA" class="selected"></path><path d="M537.6 491.52a25.6 25.6 0 0 1-25.6 20.48 20.48 20.48 0 0 1-20.48-20.48V384H404.48L512 256l107.52 128h-81.92z m189.44 112.64c56.32-25.6 76.8 0 76.8 0s5.12 10.24 0 15.36l-122.88 87.04a102.4 102.4 0 0 1-56.32 15.36h-204.8l-30.72 10.24-40.96 30.72c-20.48 10.24-25.6 0-25.6 0l-92.16-71.68c-10.24-10.24-15.36-20.48-10.24-25.6a952.32 952.32 0 0 0 107.52-71.68 107.52 107.52 0 0 1 61.44-15.36h168.96s30.72 0 30.72 15.36a30.72 30.72 0 0 1-30.72 30.72H476.16c-10.24 0-5.12 5.12 5.12 20.48h168.96z" fill="#e6e6e6" p-id="30835" data-spm-anchor-id="a313x.search_index.0.i95.57563a81hkR9SA" class=""></path></svg>