<?xml version="1.0" standalone="no"?><!DOCTYPE svg PUBLIC "-//W3C//DTD SVG 1.1//EN" "http://www.w3.org/Graphics/SVG/1.1/DTD/svg11.dtd"><svg t="1703924601185" class="icon" viewBox="0 0 1024 1024" version="1.1" xmlns="http://www.w3.org/2000/svg" p-id="32151" xmlns:xlink="http://www.w3.org/1999/xlink" width="64" height="64"><path d="M512 512m-480 0a480 480 0 1 0 960 0 480 480 0 1 0-960 0Z" p-id="32152" data-spm-anchor-id="a313x.search_index.0.i99.57563a81hkR9SA" class="selected" fill="#142a59"></path><path d="M512 80c238.592 0 432 193.408 432 432S750.592 944 512 944 80 750.592 80 512 273.408 80 512 80z m0 13.328C280.784 93.328 93.328 280.8 93.328 512 93.328 743.216 280.8 930.672 512 930.672c231.216 0 418.672-187.456 418.672-418.672C930.672 280.784 743.2 93.328 512 93.328z" fill="#ffffff" p-id="32153"></path><path d="M516.896 297.328c-121.216 0-219.568 98.352-219.568 219.568 0 121.216 98.352 219.552 219.568 219.552 121.216 0 219.552-98.336 219.552-219.552s-98.336-219.568-219.552-219.568z m139.472 359.04a195.776 195.776 0 0 1-62.688 42.24 194.56 194.56 0 0 1-76.8 15.408c-26.608 0-52.352-5.28-76.768-15.408a198.208 198.208 0 0 1-62.704-42.24 195.776 195.776 0 0 1-42.24-62.688 194.56 194.56 0 0 1-15.392-76.8c0-26.608 5.28-52.352 15.392-76.768a198.208 198.208 0 0 1 42.24-62.704 195.776 195.776 0 0 1 62.72-42.24 194.56 194.56 0 0 1 76.768-15.392c26.624 0 52.352 5.28 76.784 15.392a198.208 198.208 0 0 1 62.688 42.24 195.776 195.776 0 0 1 42.24 62.72 194.56 194.56 0 0 1 15.408 76.768c0 26.624-5.28 52.352-15.408 76.784a200.704 200.704 0 0 1-42.24 62.688z m-36.736-237.376h-13.2c-50.384 0-88.224 0.448-116.816 7.488-17.376 4.16-30.8 10.56-41.136 19.36-11.44 9.68-19.152 22.432-23.552 38.496-3.072 10.784-4.4 30.352 1.552 49.504 1.76 5.92 4.4 11.44 7.92 16.928-14.304 22.88-22.24 35.424-22.24 62.272a11.728 11.728 0 0 0 11.68 11.648c6.368 0 11.44-5.28 11.44-11.44 0-39.808 20.672-59.392 37.168-75.232a143.04 143.04 0 0 1 5.952-5.728c11.648-11.648 24.64-21.328 37.84-28.16 11.872-6.16 23.088-9.68 31.456-9.68a11.728 11.728 0 0 0 11.664-11.648 11.728 11.728 0 0 0-11.68-11.68c-12.32 0-26.832 4.192-42.24 12.32-15.392 7.488-30.352 18.72-43.552 31.92-4.416 4.384-8.592 9.024-12.528 13.856-0.224-0.88-0.672-1.536-0.88-2.416-4.64-15.408-3.088-30.144-1.328-36.528 12.768-45.984 60.496-48.4 158.624-48.4-12.096 58.528-33.008 96.576-62.48 112.864-10.56 5.936-22.224 8.8-34.544 8.8-14.08 0-25.744-3.968-31.456-6.16a56.992 56.992 0 0 1-6.384-3.088c-5.056-3.072-12.752-1.312-15.84 3.968a12.192 12.192 0 0 0-1.312 8.8 10.768 10.768 0 0 0 5.28 7.04c2.848 1.76 6.16 3.296 9.44 4.624 10.064 4.08 20.672 6.608 31.472 7.472a92.896 92.896 0 0 0 54.56-11.216c17.6-9.68 32.784-25.52 45.104-46.864 14.08-24.416 24.864-56.752 31.68-95.92a12.32 12.32 0 0 0-2.64-9.456 12.48 12.48 0 0 0-9.024-3.744z" fill="#ffffff" p-id="32154"></path></svg>